<?xml version="1.0" encoding="utf-8"?>
<!-- Generator: Adobe Illustrator 24.1.0, SVG Export Plug-In . SVG Version: 6.00 Build 0)  -->
<svg version="1.1" id="Layer_1" xmlns="http://www.w3.org/2000/svg" xmlns:xlink="http://www.w3.org/1999/xlink" x="0px" y="0px"
	 viewBox="0 0 162.49 202.65" style="enable-background:new 0 0 162.49 202.65;" xml:space="preserve">
<style type="text/css">
	.st0{fill:#FFFFFF;}
</style>
<g>
	<path class="st0" d="M144.13,168.44c2.78,0.26,4.09-2.78,6.67-2.97c-0.83,6.45,3.72,4.88,7.23,4.85c0.56,0.06,1.11,0.12,1.67,0.18
		c0.43,0.22,0.86,0.44,1.29,0.65c0.43,0.42,0.85,0.84,1.27,1.26c-0.08,0.33,0,0.62,0.22,0.88c-0.06,0.66-0.19,1.33-0.15,1.99
		c0.57,10.38-0.5,12.14-10.3,16.4c-12.64,5.5-26.07,8.02-39.62,9.33c-26.4,2.56-52.79,2.46-78.99-2.56
		c-9.84-1.89-19.36-4.69-28.23-9.44c-0.37-0.23-0.74-0.46-1.11-0.69c0,0,0.02,0.04,0.02,0.04c-0.36-0.29-0.73-0.59-1.09-0.88
		c0,0-0.06-0.04-0.06-0.04c-0.92-1.13-1.85-2.26-2.77-3.4c-0.06-0.88-0.12-1.76-0.18-2.64c0.05-1.65,0.1-3.31,0.15-4.96
		c0.58,0.01,1.17,0.01,1.75,0.02c4.39,3.87,9.63,6.09,15.15,7.78c0.27,0.18,0.56,0.25,0.88,0.19c0.35,0.2,0.7,0.41,1.04,0.61
		c2.69,0.74,5.39,1.49,8.08,2.23c0.33,0.05,0.66,0.1,0.99,0.14l0.34,0.13l0.36-0.05c0.41,0.2,0.83,0.39,1.24,0.59
		c19.87,4.37,39.9,5.68,60.12,2.97c0.36-0.19,0.72-0.37,1.08-0.56c0,0,0.01,0.09,0.01,0.09c4.47-0.03,8.78-0.66,12.43-3.88
		c-4.2,0.35-8.4,0.69-12.6,1.04c-7.68,0-15.35-0.01-23.03-0.01c-0.29-0.15-0.59-0.18-0.91-0.07c-2.62-0.11-5.24-0.22-7.87-0.33
		c-0.33-0.11-0.67-0.22-1-0.33c-3.16-0.81-6.39-0.79-9.63-0.78c-0.5-0.22-1.01-0.44-1.51-0.66c-2.67-0.42-5.33-0.84-8-1.27
		c-2.2-1.11-4.57-1.56-7-1.75c-2.65-0.73-5.29-1.47-7.94-2.2c-0.53-0.69-1.24-0.9-2.07-0.81c-0.33-0.09-0.66-0.17-0.99-0.26
		c-0.75-0.99-1.9-0.93-2.95-1.13c-0.68-0.32-1.35-0.65-2.03-0.97c-1.97-1.27-3.95-2.55-5.92-3.82c-0.05-1.65-0.1-3.31-0.16-4.96
		c0.31-2.17,1.29-2.57,3.31-1.6c2.14,1.03,4.47,1.67,6.71,2.48c2.34,0.66,4.67,1.33,7.01,1.99c0.33,0.05,0.66,0.09,0.98,0.14
		c4.15,1.79,8.66,1.85,12.99,2.8c1,0.09,2,0.17,3,0.26c7.55,1.81,15.28,1.95,22.97,2.44c0.97,0.05,1.95,0.1,2.92,0.14
		c6.72,0.54,13.45,0.45,20.18,0.06c0.93-0.04,1.86-0.09,2.79-0.13c4.04-0.27,8.08-0.55,12.12-0.82c4.1,0.02,8.13-0.46,12.08-1.59
		c3.06,0.08,6.02-0.55,8.97-1.3c0.9,0.12,1.75,0.04,2.41-0.69c2.67,0.24,5.09-0.85,7.61-1.4c0.67-0.24,1.35-0.49,2.02-0.73
		c0.38-0.11,0.76-0.23,1.14-0.34C140.89,169.56,142.77,169.77,144.13,168.44z"/>
	<path class="st0" d="M8.32,41.5c22.94-12.32,48.04-14.05,74.82-14.46c-8.89-8.05-18.42-10.05-28.4-10.75
		c-10.07-0.71-19.79,1.08-29.57,4.84C31.45,7.66,65.76-2.8,90.58,0.67c30.46,4.27,60.94,27.22,64.14,48.57
		c-1.32-0.69-2.46-1.29-3.61-1.9c-0.35-0.28-0.7-0.56-1.06-0.84c-0.29-0.17-0.58-0.34-0.87-0.51c-0.38-0.21-0.77-0.41-1.15-0.62
		c-0.35-0.23-0.7-0.47-1.05-0.7c-6.69-3.46-13.86-5.59-21.15-7.27c-26.23-6.04-52.7-6.58-79.25-2.72
		C32.1,36.79,17.7,39.62,5.98,49.53c0,0-0.21-0.13-0.21-0.13C5.93,46.55,6.6,43.85,8.32,41.5z"/>
	<path class="st0" d="M142.15,64.36c0,31.67,0,63.34,0,95.01c-0.4,2.41,0.62,5.52-3.12,6.26c-2.95-0.1-5.89-0.2-8.84-0.3
		c-0.36-0.38-0.73-0.76-1.09-1.14c0.01-31.26,0.04-62.52-0.02-93.77c0-2.61,0.26-4.91,2.96-6.46c-4.79-1.16-4.81-1.17-2.97-4.89
		c0.63-1.28-0.43-1.79-1.07-2.35c-2.65-2.32-5.72-3.96-8.96-5.32c-9.5-4-19.45-5.39-29.69-5.28c-2.07,0.02-4.09,0.49-5.35-2.33
		c-1.01-2.24-7.72-2.03-8.93,0.24c-1.02,1.9-2.33,2.14-4.01,2.15c-4.32,0.05-8.63,0.05-12.95,0.07c0.22-2.47-1.1-3.28-3.29-2.85
		c-1.93,0.38-5.13-1.11-4.79,2.97c-0.11,0.24-0.14,0.49-0.09,0.75c-3.86,1.53-9.72,3.5-11.69,1.66c-5.6-5.23-6.54-1.47-8.18,2.64
		c-1.83-0.26-3.37,0.66-5.01,1.21c-2.72-0.03-7.27-4.89-7.11,2.69l0.02-0.05c-4.04-2.64-4.23-5.12-0.38-7.08
		c4.47-2.28,9.3-3.65,14.17-4.71c25.77-5.61,51.76-6.45,77.86-2.93c10.37,1.4,20.67,3.4,30.55,7.02c2.62,0.96,5.59,1.9,4.86,5.8
		c-0.32,0.68-0.64,1.36-0.97,2.04c-0.77,1.32-3.24,2.51-0.32,4.11c0.4,1.36,0.13,2.59-0.75,3.69
		C142.71,63.6,142.43,63.98,142.15,64.36z"/>
	<path class="st0" d="M19.02,63.53c-2.15,0.04-3.17-1.01-3.03-3.17c1.01-0.38,2.01-0.76,3.02-1.14c2.03-0.6,3.99-2.45,6.14,0.03
		c0.41,0.48,1.89,0.03,2.87,0.01c1.72,0.45,3.72-0.45,5.21,1.08c0,0.69,0,1.38-0.01,2.07c-0.18,0.28-0.32,0.57-0.41,0.89
		c-0.3,0.01-0.57,0.11-0.81,0.29c-0.48,0.01-0.76,0.18-0.59,0.72c-0.43,23.36-0.44,46.71,0,70.07c-0.08,8.53-0.13,17.07-0.27,25.6
		c-0.03,1.9,0.58,3.99-1.14,5.58c-0.33-0.08-0.63-0.01-0.91,0.19c-2.64,0.09-5.28,0.17-7.92,0.26c-3.57-1.1-1.71-4.55-2.9-6.68
		c0.15-0.81,0.42-1.62,0.42-2.43c0.04-27.85,0.06-55.7,0.06-83.55c0-0.65-0.21-1.3-0.32-1.95c0.45-1,0.45-2.01,0.03-3.03
		c0.16-0.72,0.33-1.44,0.49-2.16c0.97-0.66,2.78-0.73,2.52-2.28C21.34,63.03,19.92,63.43,19.02,63.53z"/>
	<path class="st0" d="M112.79,169.28c-0.59,0.35-1.18,0.69-1.76,1.04c-1.33,0.07-2.65,0.15-3.98,0.22
		c-0.99-0.01-1.99-0.02-2.98-0.02c-0.87-0.1-1.75-0.2-2.63-0.3c-0.47-0.6-0.94-1.21-1.42-1.81c0.04-34.16,0.1-68.31,0.08-102.47
		c0-3.22-0.25-6.35,4.71-8.29c-2.48-0.18-3.43-0.27-4.38-0.3c-1.27-0.04-2.35-0.3-2.42-1.86c-0.09-1.9,1.17-2.11,2.63-2.11
		c3.83,0.01,7.66,0,11.5,0c2.49,0,3.77,1.34,2.14,3.36c-1.63,2.01-1.24,4.05-1.24,6.11c-0.04,33.49-0.02,66.98-0.04,100.47
		C113.01,165.3,112.87,167.29,112.79,169.28z"/>
	<path class="st0" d="M44.95,55.38c0.57-2.24,2.5-1.88,4.1-2.16c3.34-0.01,6.68-0.01,10.02-0.01c0.65,0.01,1.29,0.01,1.94,0.02
		c0.43,0.41,0.86,0.81,1.29,1.22c-0.36,2.71-3.37,4.82-1.82,7.97c-0.1,7.13-0.29,14.26-0.28,21.4c0.04,27.89,0.15,55.78,0.23,83.67
		c-0.14,0.63-0.28,1.26-0.42,1.89c-0.4,0.23-0.79,0.47-1.19,0.7c-0.32-0.11-0.56,0-0.72,0.32c-2.94-0.04-5.87-0.08-8.81-0.12
		c-0.67-0.96-1.33-1.92-1.99-2.88c0.91-35.33,0.6-70.67,0.25-106c1.04-1.17,2.08-2.33,3.2-3.59c-1.96-0.97-4.15,0.05-5.71-1.43
		C45,56.04,44.97,55.71,44.95,55.38z"/>
	<path class="st0" d="M72.6,153.51c0-4.76,0-9.52,0-14.28c0.35-4.25,5.5-4.26,7.34-8.26c-4.48,0.98-7.57-0.47-9.89-3.62
		c0,0,0.01,0.01,0.01,0.01c-0.04-0.33-0.08-0.67-0.11-1c0.39-0.12,0.79-0.25,1.18-0.37c0.6,0,1.21,0,1.81,0
		c6.01,0.17,12.02,0.35,18.03,0.52c-2.19,2.22-3.13,4.82-3.05,8.01c0.16,6.43,0.04,12.87,0.05,19.3c0,0.99-0.11,2.02,0.12,2.96
		c1.57,6.46,1.6,6.46-5.05,7.11c-3.37-0.03-6.73-0.06-10.1-0.1c-0.63-0.13-1.27-0.25-1.9-0.38c0.02-1.63,0.05-3.26,0.07-4.89
		C73.85,157.52,72.72,155.37,72.6,153.51z"/>
</g>
</svg>
